<svg width="81" height="17" viewBox="0 0 81 17" fill="none" xmlns="http://www.w3.org/2000/svg">
<path fill-rule="evenodd" clip-rule="evenodd" d="M7.86943 5.32498H4.99997L4.44034 10.7444H7.28578L7.86943 5.32498ZM8.81774 5.32498L8.23409 10.7444H11.6705L11.5979 11.5559H8.1605L7.57685 16.8574H6.62828L7.21194 11.5559H4.34399L3.78487 16.8574H2.83631L3.41971 11.5559H0.0078125L0.080137 10.7444H3.49203L4.07569 5.32498H0.639514L0.711838 4.51268H4.14953L4.61104 0.119141H5.55935L5.09657 4.51268H7.94176L8.40327 0.119141H9.35158L8.89032 4.51268H12.328L12.2539 5.32498H8.81774Z" fill="#D50002"/>
<path fill-rule="evenodd" clip-rule="evenodd" d="M17.0342 2.53056V14.4685H18.5421C19.3938 14.4685 19.9034 14.0394 19.9034 12.8454V4.15417C19.9034 2.96042 19.3938 2.53056 18.5421 2.53056H17.0342ZM14.361 0.143066H18.5897C21.2647 0.143066 22.5781 1.5993 22.5781 4.27386V12.7257C22.5781 15.3995 21.2647 16.857 18.5897 16.857H14.361V0.143066Z" fill="#D50002"/>
<path fill-rule="evenodd" clip-rule="evenodd" d="M24.278 0.143066H26.9527V16.857H24.278V0.143066Z" fill="#D50002"/>
<path fill-rule="evenodd" clip-rule="evenodd" d="M31.5711 7.18608H35.2427V9.57357H31.5711V14.4685H36.1908V16.857H28.8959V0.143066H36.1908V2.53056H31.5711V7.18608Z" fill="#D50002"/>
<path fill-rule="evenodd" clip-rule="evenodd" d="M45.2576 0.143066V2.48288L40.1759 14.4685H45.2576V16.857H37.4286V14.5169L42.5103 2.53056H37.6714V0.143066H45.2576Z" fill="#D50002"/>
<path fill-rule="evenodd" clip-rule="evenodd" d="M49.7779 16.857V1.14609H46.3005V0.143066H54.3483V1.14609H50.8964V16.857H49.7779Z" fill="#D50002"/>
<path fill-rule="evenodd" clip-rule="evenodd" d="M61.5673 7.87869V8.88171H56.9236V15.8537H62.5164V16.857H55.8059V0.143066H62.5164V1.14609H56.9236V7.87869H61.5673Z" fill="#D50002"/>
<path fill-rule="evenodd" clip-rule="evenodd" d="M71.6078 4.22541V5.61087H70.5379V4.15439C70.5379 2.3634 69.8318 1.00228 67.9608 1.00228C66.0877 1.00228 65.3839 2.36365 65.3839 4.15439V12.8456C65.3839 14.6359 66.0877 15.9726 67.9608 15.9726C69.8318 15.9726 70.5379 14.6359 70.5379 12.8456V10.8639H71.6078V12.7736C71.6078 15.1857 70.5379 17 67.9362 17C65.3338 17 64.2654 15.1857 64.2654 12.7736L64.2656 4.22541C64.2656 1.81458 65.3336 0 67.9362 0C70.5379 0 71.6078 1.81458 71.6078 4.22541Z" fill="#D50002"/>
<path fill-rule="evenodd" clip-rule="evenodd" d="M74.5471 9.00067V16.857H73.4293V0.143066H74.5471V7.99839H79.8482V0.143066H80.9915V16.857H79.8482V9.00067H74.5471Z" fill="#D50002"/>
</svg>
