<svg width="30" height="22" viewBox="0 0 30 22" fill="none" xmlns="http://www.w3.org/2000/svg">
<g id="Vector">
<path d="M3.95542 13.1341C2.8627 12.6705 1.77964 12.2163 0.686912 11.7621C0.619221 11.7337 0.55153 11.7053 0.483839 11.6769C0.213074 11.5539 0.0100013 11.3741 0.000331155 11.0713C-0.00933899 10.7496 0.193734 10.5604 0.483839 10.4374C1.51854 10.0115 2.55325 9.57627 3.57829 9.13154C3.68466 9.08423 3.81037 9.07476 3.91674 8.92337C3.74268 8.84767 3.56862 8.77197 3.39455 8.69627C2.45655 8.28938 1.4992 7.8825 0.54186 7.48508C0.261425 7.36207 0.0293416 7.19175 0.0100013 6.87003C-0.00933899 6.5483 0.174394 6.34959 0.474169 6.21712C2.49523 5.33712 4.51629 4.45711 6.53735 3.57711C9.13862 2.44162 11.7496 1.3156 14.3412 0.161183C14.786 -0.0375279 15.1631 -0.0659151 15.608 0.15172C16.3332 0.501829 17.0875 0.795163 17.8224 1.11688C18.2769 1.3156 18.451 1.6657 18.2963 2.00635C18.1319 2.36592 17.7257 2.48893 17.2809 2.29022C16.604 1.99689 15.9367 1.70355 15.2695 1.40076C15.0954 1.3156 14.931 1.30613 14.757 1.39129C10.6955 3.13238 6.63405 4.864 2.57259 6.59561C2.53391 6.61454 2.48556 6.64293 2.41787 6.67131C2.51457 6.79433 2.64028 6.81325 2.75632 6.86056C6.70174 8.5638 10.6568 10.2481 14.6119 11.9324C14.844 12.027 15.0471 12.0838 15.2985 11.9797C19.3406 10.2481 23.3828 8.52595 27.4152 6.80379C27.4732 6.78486 27.5216 6.74701 27.6376 6.69024C27.4539 6.60508 27.3185 6.5483 27.1831 6.48207C25.5972 5.81024 24.0113 5.13841 22.4351 4.45711C22.3384 4.41926 22.232 4.37195 22.1353 4.32464C21.7388 4.12593 21.5551 3.74743 21.7001 3.43517C21.8549 3.10399 22.261 2.97152 22.6672 3.14184C23.4118 3.4541 24.1564 3.77582 24.8913 4.08808C26.3998 4.73152 27.8987 5.37497 29.4073 6.01841C29.5813 6.09411 29.7554 6.17927 29.8714 6.34013C30.1325 6.6997 29.9875 7.10659 29.5136 7.3053C28.4886 7.74057 27.4539 8.17584 26.4192 8.61111C26.3128 8.65842 26.2064 8.70573 26.0614 8.77197C26.2258 8.93283 26.4095 8.98014 26.5836 9.04638C27.5506 9.45326 28.5176 9.86014 29.4749 10.267C29.9585 10.4752 30.1132 10.8537 29.9101 11.27C29.8134 11.4688 29.6297 11.5539 29.4363 11.6296C28.3919 12.0649 27.3475 12.5002 26.3031 12.9449C26.2161 12.9827 26.1097 12.9827 26.0517 13.1152C27.1058 13.5599 28.1598 14.0047 29.2139 14.4494C29.3396 14.4967 29.4556 14.5535 29.5813 14.6103C29.8424 14.7333 30.0068 14.932 29.9971 15.2253C29.9875 15.5092 29.8231 15.6984 29.5523 15.812C28.3339 16.323 27.1154 16.8434 25.897 17.3544C24.3594 18.0073 22.8122 18.6602 21.2747 19.3131C20.9846 19.4361 20.6945 19.5023 20.4237 19.2752C20.0369 18.944 20.1529 18.3858 20.6654 18.1587C21.5454 17.7707 22.4351 17.4017 23.3247 17.0232C24.6882 16.446 26.0517 15.8593 27.4152 15.2821C27.4829 15.2537 27.5409 15.2159 27.6473 15.1591C26.6996 14.7617 25.7906 14.4116 24.9106 13.9952C24.4851 13.7965 24.137 13.8249 23.7212 14.0141C21.0232 15.2064 18.3156 16.3608 15.608 17.5436C15.1921 17.7234 14.815 17.7234 14.3992 17.5436C11.6819 16.3703 8.95489 15.2159 6.23758 14.0425C5.87011 13.8817 5.551 13.8627 5.17386 14.0331C4.26487 14.4494 3.33653 14.8184 2.35018 15.2348C3.10445 15.5565 3.78136 15.8498 4.45827 16.1432C7.79447 17.5625 11.1307 18.9819 14.4572 20.4202C14.8537 20.5905 15.2018 20.6378 15.5789 20.4107C15.7337 20.3161 15.9077 20.2593 16.0818 20.2025C16.4009 20.0985 16.7394 20.2499 16.9038 20.5527C17.0488 20.8365 16.9618 21.1866 16.6523 21.3475C16.1882 21.5841 15.7143 21.7828 15.2308 21.9626C14.9214 22.0761 14.6409 21.9058 14.3702 21.7922C12.175 20.8649 9.97993 19.9281 7.79447 18.9914C5.37693 17.9694 2.98841 16.9475 0.59021 15.935C0.261425 15.7931 0.0100013 15.6133 0.0100013 15.2442C0.0100013 14.8847 0.290436 14.7238 0.59021 14.6008C1.60558 14.1845 2.61127 13.7587 3.61697 13.3234C3.73301 13.2855 3.85872 13.2666 3.95542 13.1341ZM2.35018 10.9389C2.48556 11.0051 2.53391 11.0335 2.59193 11.0524C6.62438 12.7746 10.6472 14.4873 14.6796 16.2094C14.9407 16.323 15.1631 16.2851 15.4049 16.181C19.3696 14.4967 23.3344 12.8219 27.2992 11.1376C27.3959 11.0903 27.5216 11.0808 27.5989 10.9483C26.5546 10.513 25.5295 10.0872 24.5142 9.65197C24.3208 9.56681 24.166 9.64251 23.992 9.70875C21.1876 10.901 18.3833 12.0838 15.5886 13.2855C15.1825 13.4653 14.815 13.4559 14.4089 13.2761C11.6045 12.0649 8.7905 10.8632 5.98615 9.65197C5.8411 9.5952 5.70572 9.5195 5.54133 9.58573C4.50662 10.0399 3.46224 10.4752 2.35018 10.9389Z" fill="#FFDD00"/>
<path d="M20.6756 2.70735C20.6756 3.05746 20.3758 3.36026 19.9987 3.36026C19.6602 3.36026 19.3411 3.06692 19.3411 2.73574C19.3315 2.40456 19.6699 2.07337 20.018 2.07337C20.3372 2.06391 20.6659 2.38563 20.6756 2.70735Z" fill="#FFDD00"/>
<path d="M18.5868 20.4588C18.2 20.4588 17.9099 20.1749 17.9196 19.8154C17.9292 19.4747 18.229 19.2003 18.5868 19.2098C18.9736 19.2192 19.254 19.4937 19.2444 19.8532C19.2347 20.2128 18.9639 20.4683 18.5868 20.4588Z" fill="#FFDD00"/>
</g>
</svg>
