<svg width="26" height="23" viewBox="0 0 26 23" fill="none" xmlns="http://www.w3.org/2000/svg">
<g id="Vector">
<path d="M21.6665 5.83009C21.9634 5.8441 22.2197 5.70403 22.4626 5.50795C22.827 5.19981 23.1644 5.24183 23.4882 5.59198C24.1764 6.32031 24.8647 7.03462 25.5529 7.74894C26.1601 8.37922 26.1466 8.5613 25.5259 9.2196C22.4222 12.455 19.3049 15.6765 16.1877 18.9119C15.2296 19.9063 14.285 20.9008 13.3269 21.8812C12.8546 22.3714 12.6387 22.3714 12.1799 21.9092C11.4377 21.1529 10.709 20.3685 9.95329 19.6122C9.61593 19.2621 9.58894 18.9539 9.87232 18.5617C10.3581 17.8894 10.3176 17.3152 9.77786 16.783C9.27857 16.2787 8.76578 16.2507 8.14503 16.7409C7.7402 17.0631 7.42983 17.0211 7.09247 16.6569C6.39076 15.9006 5.66205 15.1722 4.94685 14.4299C4.43406 13.8977 4.43406 13.7016 4.93335 13.1693C6.97102 11.0684 8.96819 8.9955 10.9789 6.90857C13.057 4.75161 15.1217 2.60866 17.1998 0.451701C17.7801 -0.150567 17.9555 -0.150567 18.5223 0.451701C19.197 1.15201 19.8852 1.85232 20.5599 2.56664C21.0322 3.05686 21.0322 3.19692 20.6544 3.78518C20.371 4.20537 20.29 4.66757 20.5329 5.11577C20.7623 5.53596 21.1132 5.8441 21.6665 5.83009ZM8.80626 15.2703C10.4661 15.2563 11.5861 16.4188 11.2488 17.9875C11.0328 18.9819 11.4242 19.4581 12.0044 20.0044C12.1259 20.1164 12.2608 20.2425 12.3553 20.3685C12.6117 20.7047 12.8141 20.6907 13.111 20.3685C15.7289 17.6233 18.3603 14.8921 21.0187 12.1609C21.3291 11.8388 21.3021 11.6567 21.0187 11.3625C20.5194 10.8723 20.5599 10.8723 20.9917 10.3821C21.2886 10.046 21.4776 10.102 21.7609 10.3961C22.2332 10.8863 22.2467 10.8723 22.7325 10.3681C23.2453 9.83587 23.7446 9.28963 24.2709 8.7714C24.5138 8.53329 24.5138 8.35121 24.2709 8.12711C23.92 7.79096 23.5827 7.45481 23.2723 7.09065C23.0159 6.78251 22.7865 6.72649 22.3952 6.85254C20.6679 7.41279 18.9271 6.01217 19.3184 4.24739C19.5343 3.29496 19.2375 2.79074 18.6302 2.27251C18.4683 2.14645 18.3198 1.99238 18.1984 1.82431C17.9555 1.50217 17.7531 1.55819 17.4967 1.83832C16.9569 2.42658 16.4171 3.00083 15.8504 3.54708C15.5535 3.84121 15.567 4.00928 15.8774 4.28941C16.4441 4.80764 16.4036 4.84965 15.9583 5.35388C15.54 5.81608 15.2971 5.46593 15.0677 5.1858C14.7843 4.82164 14.5819 4.84965 14.2715 5.1718C12.6252 6.93658 10.9654 8.64534 9.30556 10.3681C8.32046 11.3906 7.33537 12.427 6.33678 13.4495C6.08038 13.7016 6.08038 13.8837 6.35027 14.1218C6.63366 14.3739 6.89005 14.654 7.13295 14.9341C7.48381 15.3543 7.84816 15.5924 8.38793 15.3123C8.54987 15.2423 8.75228 15.2703 8.80626 15.2703Z" fill="#272625"/>
<path d="M6.7422 18.6038C6.7422 18.6458 6.75569 18.8139 6.68822 18.9259C6.31037 19.6262 6.64773 20.0884 7.14703 20.5226C7.48439 20.8027 7.7138 21.349 8.11863 21.391C8.50997 21.433 8.75287 20.8868 9.04975 20.5786C9.52205 20.0884 9.67049 20.6767 9.92689 20.8448C10.2238 21.0409 10.0753 21.2369 9.8864 21.433C9.46807 21.8672 9.06324 22.3014 8.63142 22.7216C8.26707 23.0858 7.98369 23.0998 7.61934 22.7216C6.85015 21.9373 6.09446 21.1389 5.32528 20.3546C5.0149 20.0324 4.98792 19.7103 5.2578 19.3321C5.73011 18.6598 5.70312 18.0996 5.21732 17.5953C4.71803 17.0631 4.17825 17.0351 3.50353 17.5393C3.15267 17.8054 2.85579 17.7774 2.55891 17.4693C1.78973 16.6709 1.00705 15.8586 0.237867 15.0602C-0.0860003 14.7241 -0.0725058 14.3879 0.237867 14.0518C0.291845 13.9817 0.359317 13.9257 0.413295 13.8697C4.08379 10.032 7.75428 6.19426 11.4248 2.35656C12.086 1.67025 13.0711 1.93637 13.314 2.9028C13.395 3.23895 13.0576 3.351 12.8687 3.53308C12.7337 3.67314 12.5718 3.82721 12.3964 3.61712C12.167 3.351 12.0185 3.46305 11.8161 3.65914C8.45599 7.1747 5.09587 10.6903 1.72226 14.2058C1.45237 14.4859 1.45237 14.682 1.73575 14.9341C1.89769 15.0742 2.05962 15.2423 2.19456 15.4244C2.68036 16.0266 3.12568 16.3488 4.01631 16.0967C5.47372 15.6905 6.78268 16.9791 6.7422 18.6038Z" fill="#272625"/>
<path d="M16.7554 10.186C16.5125 11.1244 16.9578 11.6707 17.7135 12.0629C17.9564 12.1889 18.1723 12.357 18.3883 12.5251C18.8201 12.9032 18.7526 13.4075 18.2128 13.6316C17.7135 13.8276 17.2007 13.9957 16.6745 14.1638C16.4046 14.2478 16.2426 14.4019 16.1752 14.682C16.0402 15.1722 15.8918 15.6485 15.7433 16.1387C15.6489 16.4328 15.5139 16.6989 15.1766 16.7269C14.8662 16.7549 14.6773 16.5589 14.5288 16.3208C14.2589 15.9006 13.9756 15.4804 13.7192 15.0462C13.5707 14.7941 13.3683 14.71 13.0984 14.71C12.5451 14.71 11.9919 14.7801 11.4386 14.724C10.8179 14.654 10.575 14.1918 10.9528 13.6736C11.2497 13.2534 11.6005 12.8752 11.9379 12.483C12.1538 12.2309 12.2078 11.9928 12.0728 11.6707C11.8569 11.1805 11.6815 10.6622 11.4926 10.158C11.3846 9.87789 11.3846 9.61177 11.6005 9.38767C11.8164 9.16357 12.0863 9.17758 12.3562 9.28963C12.842 9.49972 13.3278 9.69581 13.8001 9.9059C14.0835 10.032 14.3129 9.98994 14.5288 9.77985C14.8662 9.4437 15.2305 9.13556 15.5949 8.81342C15.8243 8.60332 16.0807 8.47727 16.3776 8.61733C16.6745 8.75739 16.7554 9.05152 16.7554 9.35966C16.7554 9.62578 16.7554 9.9059 16.7554 10.186ZM15.4869 10.5642C14.7717 11.4606 14.0026 11.5026 13.0849 10.9424C13.6652 11.9228 13.5302 12.7352 12.6801 13.4635C13.7057 13.3234 14.4749 13.5755 14.9067 14.64C15.0416 13.5195 15.6489 12.9873 16.661 12.8192C15.6624 12.385 15.3385 11.6427 15.4869 10.5642Z" fill="#272625"/>
<path d="M17.0257 5.57797C17.1202 5.648 17.1877 5.69002 17.2416 5.74604C17.579 6.08219 17.9029 6.44635 18.2402 6.7685C18.6586 7.17468 18.2537 7.35676 18.0648 7.59486C17.8354 7.903 17.633 7.903 17.3766 7.60887C17.1067 7.28673 16.7828 6.9926 16.4994 6.68446C16.3915 6.5584 16.2026 6.44635 16.3375 6.25027C16.5264 5.98415 16.7423 5.74604 17.0257 5.57797Z" fill="#272625"/>
<path d="M20.6415 9.34566C20.4931 9.6538 20.2637 9.84988 20.0343 10.046C19.8319 10.214 19.6969 10.004 19.5755 9.8779C19.2651 9.55575 18.9547 9.23361 18.6444 8.91147C18.28 8.54731 18.6444 8.36523 18.8198 8.15513C19.0087 7.94504 19.1976 7.73495 19.481 8.05709C19.8049 8.42125 20.1423 8.74339 20.4796 9.09355C20.5471 9.16358 20.5876 9.26162 20.6415 9.34566Z" fill="#272625"/>
</g>
</svg>
