<svg width="6" height="11" viewBox="0 0 6 11" fill="none" xmlns="http://www.w3.org/2000/svg">
<path id="Vector" d="M0.995538 10.9999C1.12361 11.0003 1.25016 10.9744 1.36588 10.9241C1.48159 10.8738 1.58354 10.8004 1.66423 10.7093L5.80498 5.99542C5.93107 5.85484 6 5.67851 6 5.49654C6 5.31456 5.93107 5.13823 5.80498 4.99765L1.51849 0.283815C1.37297 0.123374 1.16387 0.0224786 0.937176 0.00332488C0.710484 -0.0158288 0.484774 0.0483281 0.309699 0.181682C0.134625 0.315035 0.0245271 0.506662 0.00362641 0.714405C-0.0172743 0.922149 0.052734 1.12899 0.19825 1.28943L4.03037 5.50046L0.326846 9.7115C0.222013 9.82682 0.155421 9.96724 0.134949 10.1162C0.114477 10.2651 0.140982 10.4163 0.211328 10.5518C0.281675 10.6873 0.392918 10.8016 0.531895 10.881C0.670871 10.9604 0.831765 11.0017 0.995538 10.9999Z" fill="#54C5DE"/>
</svg>
