<svg width="141" height="66" viewBox="0 0 141 66" fill="none" xmlns="http://www.w3.org/2000/svg">
<path fill-rule="evenodd" clip-rule="evenodd" d="M31.5516 27.3394C32.5415 26.4255 34.0646 25.131 34.7499 24.7502C34.6738 25.664 34.5976 26.2732 34.2169 27.0347L31.5516 27.3394ZM32.9984 20.7903C31.78 22.0849 30.6378 22.8464 28.734 24.9025C27.4394 26.4255 26.1448 27.7201 24.7741 29.3193C23.5557 30.69 22.4134 32.2892 21.0427 33.7361C19.9766 34.8783 20.1289 34.726 20.4335 36.5537C20.6619 37.7721 20.8142 38.9905 21.0427 40.2089C22.0327 40.0566 27.6679 38.1528 28.2009 37.7721C29.4193 36.8583 27.744 36.706 31.0185 35.8683C32.3892 35.4875 33.6838 34.9545 35.1307 34.726C35.5114 41.4273 37.0345 44.7018 33.5315 52.5454C31.3993 57.4191 28.3532 60.6936 24.7741 64.1966C27.2109 65.1104 33.76 65.3388 36.5014 65.0342C40.1567 64.6535 41.2989 64.1204 42.9743 60.2367L43.5073 59.1706C43.5073 59.1706 43.5835 59.0944 43.5835 59.0183L43.355 63.3589C44.9542 62.902 48.2287 61.0744 49.6756 60.2367C52.4932 58.5614 52.7978 58.1045 53.0262 54.0684L53.94 55.1346C54.2446 55.6676 54.3208 55.8961 54.6254 56.4291C55.3869 56.1245 57.8238 53.2308 58.5091 52.2408C60.1844 49.9563 57.3668 41.9604 56.3007 39.3713C55.6915 37.7721 54.1685 35.3352 53.7116 33.8884C57.443 36.3252 60.1083 42.9504 60.8698 44.0165C61.2506 38.9143 57.8238 32.7461 55.0062 28.9385C53.7877 27.3394 52.8739 26.5017 51.5794 25.131C47.2387 20.5619 38.7098 16.4497 31.5516 17.0589L32.9984 20.7903Z" fill="#FFDD00"/>
<path fill-rule="evenodd" clip-rule="evenodd" d="M2.91875 19.6481C4.06102 19.1912 4.28948 18.8866 5.73635 18.8105C2.8426 21.6281 0.862669 23.0749 0.177307 28.7863C-0.2796 32.4415 0.101156 40.2851 1.85264 42.7981C2.46185 41.8081 3.07106 37.4675 4.97484 35.3353C4.59408 38.6859 4.06102 41.5797 3.98487 45.235C3.90872 49.7279 5.20329 50.5655 7.18322 53.0024C9.39161 55.7438 9.92467 55.82 14.7983 54.1446C16.7021 53.4593 21.1189 52.0124 22.1089 50.6417C21.652 50.1848 21.1951 50.0325 20.662 49.6517C20.1289 49.271 19.5959 48.8141 19.2151 48.4333C16.3975 45.768 14.7222 41.5797 14.1891 37.3914C13.7322 34.2692 13.9607 30.7662 14.7222 27.9486C15.8645 23.7603 17.2352 23.3034 18.9867 21.7042L14.9507 21.8565C16.5498 17.9728 22.185 14.2414 25.7641 12.1091C26.9064 11.4238 29.2671 10.2054 30.1048 9.44386C26.6018 9.29155 23.7842 9.82461 20.5858 10.3577C21.8043 7.61623 27.1349 5.33169 31.0947 4.18942C39.9283 1.60028 44.6496 4.03712 46.0204 3.19945C43.4312 1.44797 36.6538 0.0772514 32.77 0.0011001C23.5557 -0.0750512 15.7122 3.80866 9.62006 9.67231C7.64013 11.5761 3.75642 15.9167 2.91875 19.6481Z" fill="#FFDD00"/>
<path fill-rule="evenodd" clip-rule="evenodd" d="M37.0345 6.47404C37.8721 7.23556 44.4212 8.60628 50.1325 12.6423L51.3509 13.48C51.5794 13.7084 51.5032 13.6323 51.7317 13.8607C49.5233 13.9369 46.4772 13.4038 44.4973 13.8607C45.335 14.6222 48.0003 15.6883 49.0664 16.4499C52.6455 19.039 57.8238 23.9127 59.4991 28.101L57.2907 27.5679C58.0522 28.7864 60.1845 29.5479 62.469 35.4877C62.9259 36.6299 63.7636 39.676 63.8397 41.1229C64.7535 39.5998 64.982 34.5739 64.982 32.5939C64.982 21.7043 61.2506 21.2474 59.8037 18.5059L61.7075 19.039C61.0983 16.0691 56.8338 11.1193 54.8539 9.21549C53.3309 7.76862 51.1986 7.54016 48.6095 7.08325C43.2789 6.16944 41.832 6.24559 37.0345 6.47404Z" fill="#FFDD00"/>
<path fill-rule="evenodd" clip-rule="evenodd" d="M13.0469 58.4853C13.8084 59.6276 19.0628 62.5214 21.1189 62.9021C23.8604 60.9983 33.227 51.1748 32.5416 44.9304C31.8562 45.0827 31.3993 45.9965 30.5617 46.9104C30.0286 47.5957 29.1148 48.3572 28.5056 48.9664C27.7441 49.728 27.2872 50.261 26.3733 50.9464C23.9365 52.9263 21.7281 54.6778 18.8344 56.0485L13.0469 58.4853Z" fill="#FFDD00"/>
<path d="M85.9997 44.9304C85.9997 45.235 85.9236 45.3873 85.8474 45.5396C85.7713 45.6157 85.5428 45.6919 85.2382 45.6919H83.2583C82.8775 45.6919 82.4968 45.5396 82.1922 45.235C81.8876 44.9304 81.7352 44.5496 81.7352 44.0927V16.526H79.2223V44.1689C79.2223 44.6258 79.07 44.9304 78.7653 45.235C78.4607 45.5396 78.08 45.6919 77.6992 45.6919H75.7954C75.4908 45.6919 75.2624 45.6157 75.1862 45.5396C75.1101 45.3873 75.0339 45.235 75.0339 44.9304V13.7084C75.0339 13.4038 75.1101 13.1753 75.1862 13.0992C75.2624 12.9469 75.4908 12.9469 75.7954 12.9469H85.2382C85.5428 12.9469 85.7713 13.023 85.8474 13.0992C85.9997 13.2515 85.9997 13.4038 85.9997 13.7084V44.9304ZM98.2601 12.9469C98.4885 12.9469 98.717 13.023 98.8693 13.1753C99.0216 13.3276 99.0977 13.4799 99.0977 13.7845V14.3937C99.0977 15.0791 98.9454 15.6121 98.6408 15.9929C98.3362 16.3737 97.8793 16.526 97.2701 16.526H94.5287V27.7202H97.6509C98.1839 27.7202 98.4124 28.0248 98.4124 28.5579V29.1671C98.4124 29.8524 98.2601 30.3855 97.9555 30.7663C97.6509 31.147 97.194 31.2993 96.5847 31.2993H94.5287V42.1889H97.2701C97.8793 42.1889 98.3362 42.3412 98.6408 42.722C98.9454 43.1028 99.0977 43.6358 99.0977 44.3212V44.9304C99.0977 45.1588 99.0216 45.3873 98.8693 45.5396C98.717 45.6919 98.4885 45.768 98.2601 45.768H91.1019C90.7211 45.768 90.4926 45.6919 90.4165 45.6157C90.3403 45.5396 90.2642 45.3111 90.2642 45.0065V13.7084C90.2642 13.4038 90.3403 13.1753 90.4165 13.0992C90.4926 13.023 90.7211 12.9469 91.0257 12.9469H98.2601ZM103.286 44.9304C103.286 45.235 103.362 45.4634 103.438 45.5396C103.515 45.6157 103.743 45.6919 104.048 45.6919H105.951C106.332 45.6919 106.713 45.5396 107.017 45.235C107.322 44.9304 107.474 44.5496 107.474 44.1689V16.526H110.216C111.434 16.526 112.12 15.8406 112.12 14.3937V13.7845C112.12 13.5561 112.043 13.3276 111.891 13.1753C111.739 13.023 111.51 12.9469 111.282 12.9469H104.048C103.743 12.9469 103.515 13.023 103.438 13.0992C103.362 13.2515 103.286 13.4038 103.286 13.7084V44.9304ZM125.065 44.8542C125.065 45.1588 125.065 45.3111 124.989 45.4634C124.913 45.5396 124.685 45.6157 124.38 45.6157H122.324C121.943 45.6157 121.562 45.4634 121.258 45.1588C120.953 44.8542 120.801 44.4735 120.725 44.0927L120.496 40.2852H118.059L117.831 44.0927C117.831 44.5496 117.602 44.8542 117.298 45.1588C116.993 45.4634 116.613 45.6157 116.232 45.6157H114.176C113.871 45.6157 113.643 45.5396 113.566 45.4634C113.49 45.3873 113.49 45.1588 113.49 44.8542L116.308 13.7084C116.308 13.4038 116.46 13.1753 116.613 13.023C116.765 12.9469 117.069 12.8707 117.374 12.8707H121.105C121.486 12.8707 121.715 12.9469 121.867 13.023C122.019 13.0992 122.095 13.4038 122.172 13.7084L125.065 44.8542ZM118.212 36.8584H120.344L119.278 17.8967L118.212 36.8584ZM134.508 12.3376C135.346 12.3376 136.107 12.4899 136.793 12.7184C137.478 12.9469 138.011 13.3276 138.544 13.7084C139.001 14.1653 139.382 14.6222 139.686 15.2314C139.915 15.7645 140.067 16.3737 140.067 17.059V26.5018C140.067 26.9587 139.839 27.1871 139.306 27.1871H137.25C136.945 27.1871 136.64 27.111 136.26 26.8825C135.955 26.7302 135.803 26.4256 135.803 26.0449V17.2113C135.803 16.9067 135.65 16.6783 135.422 16.3737C135.193 16.1452 134.813 15.9929 134.432 15.9929C133.975 15.9929 133.67 16.1452 133.442 16.3737C133.214 16.6021 133.061 16.9067 133.061 17.2113V41.2751C133.061 41.5797 133.214 41.8082 133.442 42.1128C133.67 42.3412 133.975 42.4935 134.432 42.4935C134.889 42.4935 135.27 42.3412 135.422 42.1128C135.65 41.8843 135.726 41.5797 135.726 41.3513V32.5177C135.726 32.137 135.879 31.8324 136.183 31.6801C136.488 31.5278 136.793 31.3755 137.173 31.3755H139.229C139.763 31.3755 139.991 31.6039 139.991 32.0608V41.4274C139.991 42.0366 139.839 42.6458 139.61 43.2551C139.382 43.7881 138.925 44.3212 138.468 44.7781C137.935 45.235 137.402 45.5396 136.64 45.768C135.955 45.9965 135.193 46.1488 134.356 46.1488C133.518 46.1488 132.757 45.9965 132.071 45.768C131.386 45.5396 130.853 45.1588 130.32 44.7781C129.863 44.3212 129.482 43.8643 129.254 43.2551C129.025 42.722 128.873 42.1128 128.873 41.4274V17.059C128.873 16.3737 129.025 15.7645 129.254 15.2314C129.558 14.6983 129.863 14.1653 130.396 13.7084C130.853 13.2515 131.462 12.9469 132.147 12.7184C132.909 12.4899 133.67 12.3376 134.508 12.3376Z" fill="white"/>
</svg>
