<svg width="36" height="36" viewBox="0 0 36 36" fill="none" xmlns="http://www.w3.org/2000/svg">
<circle cx="18" cy="18" r="18" fill="#373737"/>
<path d="M19.0108 15.8275C19.0108 16.4926 19.0097 17.1588 19.0108 17.8239C19.0108 18.0028 19.0182 18.1897 19.2027 18.2901C19.4041 18.4007 19.5845 18.3022 19.7522 18.1947C20.2552 17.8702 20.5906 17.3989 20.9301 16.9377C21.6873 15.9068 22.3454 14.8187 22.8453 13.6522C23.0235 13.2372 23.2829 13.0362 23.7691 13.0573C24.4272 13.0855 25.0863 13.0583 25.7454 13.0664C26.4087 13.0744 26.6829 13.4482 26.4414 14.041C25.8973 15.3743 25.0694 16.5529 24.212 17.7144C24.038 17.9505 23.8788 18.1967 23.7048 18.4328C23.459 18.7664 23.5202 19.0518 23.806 19.3401C24.4493 19.9872 25.0715 20.6523 25.7127 21.3004C26.2063 21.7998 26.5891 22.3675 26.9054 22.9774C27.1585 23.4657 26.8844 23.963 26.3117 23.9831C25.4564 24.0133 24.5991 23.9962 23.7427 23.9841C23.4453 23.9801 23.2492 23.8093 23.0773 23.5742C22.3475 22.5795 21.4321 21.7536 20.4408 20.999C20.3891 20.9598 20.3322 20.9277 20.2752 20.8955C19.6615 20.5519 19.363 20.7006 19.3398 21.3738C19.325 21.7998 19.3377 22.2278 19.3335 22.6548C19.3261 23.4295 18.8125 23.9078 18.0068 23.9379C16.0495 24.0113 14.4581 23.2115 13.0333 22.0419C11.6118 20.8744 10.6732 19.3532 9.7483 17.83C9.04805 16.6735 8.45853 15.4698 8.08626 14.1766C7.84265 13.3286 8.10208 13.0021 9.03012 13.0011C9.58378 13.0001 10.1364 13.0051 10.69 13.0001C11.1266 12.996 11.4061 13.1779 11.5538 13.5768C11.9408 14.6187 12.3458 15.6547 12.8815 16.6373C13.3149 17.4311 13.8085 18.1857 14.476 18.8237C14.5688 18.9121 14.6669 18.9995 14.7776 19.0648C15.0729 19.2407 15.2712 19.1653 15.3756 18.8468C15.403 18.7634 15.4252 18.675 15.4241 18.5886C15.4093 17.4602 15.4916 16.3299 15.3503 15.2025C15.2807 14.6519 14.9569 14.2269 14.6395 13.7938C14.5203 13.6321 14.3474 13.4773 14.4623 13.2543C14.5783 13.0282 14.8124 13.0654 15.0191 13.0644C16.06 13.0624 17.102 13.0614 18.1428 13.0644C18.8051 13.0664 19.0044 13.2613 19.0076 13.9064C19.0108 14.5464 19.0087 15.1874 19.0087 15.8275H19.0108Z" fill="white"/>
</svg>
