<svg width="36" height="36" viewBox="0 0 36 36" fill="none" xmlns="http://www.w3.org/2000/svg">
<circle cx="18" cy="18" r="18" fill="#373737"/>
<path d="M17.3574 27.0025C15.8847 26.9624 14.4019 27.0226 12.9292 26.9224C10.0138 26.742 7.94996 24.6682 7.79968 21.7428C7.65942 19.0277 7.72955 16.3127 7.74959 13.5977C7.75961 12.8062 7.86981 12.0248 8.13029 11.2734C8.83159 9.30975 10.2642 8.21773 12.288 7.86708C12.8991 7.75687 13.5103 7.7168 14.1214 7.7168C16.4156 7.7168 18.6999 7.70678 20.9941 7.72682C21.8156 7.73684 22.6472 7.827 23.4286 8.10752C25.4023 8.7988 26.4943 10.2315 26.855 12.2552C26.9652 12.8563 27.0053 13.4674 27.0053 14.0886C27.0053 16.3828 27.0153 18.6671 26.9952 20.9613C26.9852 21.8029 26.8951 22.6344 26.6145 23.4359C25.9132 25.3995 24.4806 26.5016 22.4568 26.8422C20.7637 27.1127 19.0505 26.9524 17.3574 27.0025ZM9.50284 16.9239C9.50284 18.0059 9.51285 18.7272 9.50284 19.4485C9.49282 20.1899 9.53289 20.9213 9.58298 21.6626C9.68317 23.3558 10.5949 24.5279 12.1678 24.9487C12.5886 25.0589 13.0294 25.119 13.4602 25.129C16.075 25.1892 18.6899 25.1992 21.3047 25.129C22.4468 25.099 23.5188 24.8285 24.3003 23.8968C24.9615 23.1153 25.1318 22.1636 25.1619 21.1918C25.232 18.607 25.242 16.0122 25.1619 13.4274C25.1318 12.3354 24.8913 11.2934 24.0197 10.502C23.2683 9.8207 22.3466 9.59027 21.3849 9.58025C18.6197 9.53016 15.8546 9.3899 13.0895 9.57023C12.1077 9.63034 11.196 9.91086 10.4947 10.6723C9.8635 11.3535 9.65311 12.1851 9.57297 13.0767C9.45274 14.4693 9.53289 15.8719 9.50284 16.9239Z" fill="white"/>
<path d="M22.3566 17.3548C22.3566 20.1199 20.1224 22.3441 17.3573 22.3441C14.6222 22.3441 12.3881 20.1099 12.3881 17.3648C12.3881 14.5997 14.6222 12.3756 17.3874 12.3756C20.1324 12.3756 22.3566 14.6097 22.3566 17.3548ZM17.3974 14.209C15.6341 14.199 14.2415 15.5615 14.2315 17.3147C14.2215 19.088 15.574 20.4806 17.3272 20.5006C19.1206 20.5107 20.5132 19.1481 20.5232 17.3749C20.5232 15.6016 19.1606 14.219 17.3974 14.209Z" fill="white"/>
<path d="M22.4969 13.3975C21.8156 13.3975 21.3247 12.8965 21.3247 12.2053C21.3247 11.534 21.8457 11.0131 22.5169 11.0231C23.1581 11.0231 23.7091 11.5841 23.7091 12.2253C23.6991 12.8965 23.1782 13.3975 22.4969 13.3975Z" fill="white"/>
</svg>
