<svg width="36" height="36" viewBox="0 0 36 36" fill="none" xmlns="http://www.w3.org/2000/svg">
<rect width="36" height="36" fill="#1E1E1E"/>
<g id="&#208;&#147;&#208;&#187;&#208;&#176;&#208;&#178;&#208;&#189;&#208;&#176;&#209;&#143;" clip-path="url(#clip0_1_1799)">
<rect width="1920" height="2460" transform="translate(-1581 -2290)" fill="white"/>
<g id="&#209;&#132;&#209;&#131;&#209;&#130;&#208;&#181;&#209;&#128;">
<rect id="Rectangle 773" x="-1581" y="-152" width="1920" height="232" fill="#272625"/>
<g id="Group 117">
<g id="Group 450">
<g id="&#209;&#129;&#208;&#190;&#209;&#134; &#209;&#129;&#208;&#181;&#209;&#130;&#208;&#184;">
<g id="Group 173">
<g id="Group 172">
<circle id="Ellipse 2" cx="18" cy="18" r="18" fill="#373737"/>
<path id="Vector" d="M15.6818 22.0774C15.6818 20.9882 15.6626 19.8989 15.6896 18.8116C15.7031 18.2728 15.57 18.0247 14.9664 18.0364C13.8499 18.0577 13.8479 18.0247 13.846 16.8619C13.846 16.6932 13.846 16.5227 13.846 16.3541C13.8479 15.1214 13.8479 15.0981 15.0378 15.0729C15.5565 15.0613 15.6973 14.8442 15.6896 14.3655C15.6799 13.6911 15.6452 13.0166 15.7995 12.344C16.1177 10.9408 16.9604 10.0977 18.3623 9.83997C19.4114 9.64809 20.472 9.69848 21.5307 9.69848C21.9993 9.69848 22.1651 9.92718 22.1497 10.3768C22.1304 10.9331 22.1227 11.4913 22.1516 12.0456C22.1767 12.5417 21.9781 12.7607 21.4882 12.753C21.0794 12.7472 20.6706 12.7627 20.2618 12.7782C19.7681 12.7956 19.5097 13.0515 19.5116 13.5554C19.5116 13.6271 19.5078 13.7007 19.5039 13.7725C19.4634 15.0633 19.4634 15.0633 20.7227 15.0633C22.2422 15.0633 22.2422 15.0633 22.0263 16.5905C21.8219 18.0383 21.8219 18.0693 20.364 18.0344C19.7083 18.0189 19.4769 18.2147 19.4866 18.8911C19.5213 21.0676 19.4808 23.2461 19.5097 25.4226C19.5174 26.0835 19.2918 26.3413 18.6304 26.3045C17.8629 26.2638 17.0896 26.287 16.3201 26.2928C15.865 26.2967 15.6741 26.0932 15.6799 25.63C15.6953 24.4458 15.6857 23.2597 15.6857 22.0735C15.6838 22.0774 15.6818 22.0774 15.6818 22.0774Z" fill="white"/>
</g>
</g>
</g>
</g>
</g>
</g>
</g>
<defs>
<clipPath id="clip0_1_1799">
<rect width="1920" height="2460" fill="white" transform="translate(-1581 -2290)"/>
</clipPath>
</defs>
</svg>
